<svg xmlns="http://www.w3.org/2000/svg" width="128" height="128" viewBox="0 0 24 24"><path fill="#65a30d" d="M19.14 5.876a1 1 0 0 0-.442-.442L9.744.171c-.329-.226-.843-.226-1.203-.01L5.148 2.145a2 2 0 0 0-.144.123a1.1 1.1 0 0 0-.288.72l.01 6.569l-.02.215l.062.123a.5.5 0 0 0 .195.206a.52.52 0 0 0 .555.01L8.859 8.2a.6.6 0 0 0 .175-.175l.082-.165V4.643l2.251 1.326l3.536 2.077a.4.4 0 0 1 .164.185a.44.44 0 0 1 .062.226v7.052a.5.5 0 0 1-.072.257c-.041.072-.082.123-.154.154l-4.225 2.488l-1.573.925v-3.228l1.953-1.172l1.049-.627l.185-.175l.021-.051a.54.54 0 0 0 .062-.247V9.999a.5.5 0 0 0-.092-.288l-.062-.123l-.144-.072c-.093-.041-.175-.041-.247-.041l-.175.01l-6.363 3.865a1.13 1.13 0 0 0-.442.463a1.3 1.3 0 0 0-.144.607v6.559c0 .257.103.514.329.75c.082.062.154.113.236.164l3.341 1.943c.186.113.381.164.597.164s.422-.051.596-.164l8.882-5.212c.195-.103.36-.267.442-.432c.113-.185.164-.401.164-.617V6.483a1.24 1.24 0 0 0-.153-.607M8.387 7.624L5.447 9.32V2.988c0-.072.031-.154.092-.216l.216-.123l2.632 1.563zm-2.951 6.795q0-.139.062-.278a.4.4 0 0 1 .175-.175l5.973-3.629v3.392l-.956.576l-2.313 1.388l-2.94 1.778v-3.052zm0 6.559v-2.663l2.94-1.768v3.218l-2.632 1.552l-.103-.062c-.051-.031-.093-.051-.103-.062c-.061-.071-.102-.143-.102-.215m13.128-3.403a.5.5 0 0 1-.072.257a.34.34 0 0 1-.165.154l-8.892 5.222a.405.405 0 0 1-.452 0l-2.508-1.47l4.575-2.693v-.01l4.215-2.478a1 1 0 0 0 .432-.442a1.13 1.13 0 0 0 .175-.606V8.457c0-.216-.062-.421-.165-.596a1.2 1.2 0 0 0-.432-.442l-3.536-2.077l-3.352-1.974l-1.923-1.141L8.911.788a.45.45 0 0 1 .452 0l8.985 5.294a.32.32 0 0 1 .154.154a.5.5 0 0 1 .062.247z"/></svg>